#!OML:ASF F:\VICON\USERDATA\INSTALL\rory3\rory3.ASF
:FULLY-SPECIFIED
:DEGREES
498
root 7.1089 17.3614 2.60893 10.9527 46.3058 8.72168
lowerback 8.5786 2.86574 -5.3416
upperback 3.03132 3.38183 -1.31927
thorax -1.87972 1.69793 1.28218
lowerneck 12.1621 -17.9791 -22.1675
upperneck -12.2346 -25.5064 33.3027
head 2.2281 -14.0126 13.0129
rclavicle -7.85199e-015 -1.98785e-014
rhumerus -34.5881 -14.3108 -71.5108
rradius 58.2663
rwrist -3.7152
rhand -11.3923 26.5783
rfingers 7.12502
rthumb 14.6426 -2.88473
lclavicle -7.85199e-015 -1.98785e-014
lhumerus -78.7124 44.0707 15.773
lradius 26.6895
lwrist 7.58262
lhand -3.84267 40.9318
lfingers 7.12502
lthumb 21.905 69.7118
rfemur -33.4028 -2.7869 5.93409
rtibia 28.7859
rfoot -17.9212 -22.8144
rtoes 20.8291
lfemur -7.83717 -9.21619 -25.7218
ltibia 31.358
lfoot -20.2299 -30.6955
ltoes 23.483
499
root 7.12668 17.3643 2.58952 11.1129 46.6093 8.64415
lowerback 8.52524 2.7925 -5.10711
upperback 2.96374 3.30392 -1.31235
thorax -1.9039 1.66059 1.16828
lowerneck 12.3802 -17.8666 -22.159
upperneck -12.6802 -25.2952 33.3328
head 2.01627 -13.9398 13.1216
rclavicle 5.78463e-014 -3.18055e-015
rhumerus -34.8226 -14.9361 -71.8635
rradius 56.2194
rwrist -4.27684
rhand -11.7717 26.2803
rfingers 7.12502
rthumb 14.277 -3.20892
lclavicle 5.78463e-014 -3.18055e-015
lhumerus -79.881 44.5156 15.8244
lradius 25.9775
lwrist 7.68586
lhand -4.13792 41.2674
lfingers 7.12502
lthumb 21.6215 70.0803
rfemur -33.5839 -2.52418 5.75311
rtibia 28.8366
rfoot -17.9049 -23.009
rtoes 22.0103
lfemur -8.0773 -9.29019 -25.6278
ltibia 31.2824
lfoot -19.9235 -30.9621
ltoes 23.7983
500
root 7.14609 17.3635 2.59151 11.2335 46.8589 8.8152
lowerback 8.55204 2.90957 -5.12175
upperback 3.02957 3.46034 -1.29469
thorax -1.86133 1.73712 1.17826
lowerneck 12.6883 -17.88 -22.4431
upperneck -13.041 -25.3478 33.7088
head 1.99198 -14.0139 13.3234
rclavicle 9.54166e-015 -1.51076e-014
rhumerus -35.0418 -15.8277 -71.9335
rradius 53.9121
rwrist -4.64638
rhand -12.5716 26.264
rfingers 7.12502
rthumb 13.5061 -3.27806
lclavicle 9.54166e-015 -1.51076e-014
lhumerus -79.1736 44.7013 18.3899
lradius 25.2753
lwrist 10.9091
lhand 4.19992 45.0878
lfingers 7.12502
lthumb 29.6066 72.7456
rfemur -33.4438 -2.63775 5.5866
rtibia 28.8024
rfoot -17.4765 -22.848
rtoes 22.0619
lfemur -8.02779 -9.13914 -25.7115
ltibia 31.2549
lfoot -19.6047 -31.4002
ltoes 24.6151
501
root 7.15805 17.3656 2.60909 11.4528 46.9856 9.27894
lowerback 8.57795 3.05902 -5.59059
upperback 3.17085 3.6268 -1.32
thorax -1.76356 1.81601 1.39701
lowerneck 12.7973 -17.9519 -22.4953
upperneck -13.2377 -25.4372 33.9076
head 1.99 -14.083 13.3956
rclavicle 1.2424e-014 -2.14687e-014
rhumerus -35.1485 -16.4703 -72.1069
rradius 51.4606
rwrist -5.07852
rhand -14.2162 26.4988
rfingers 7.12502
rthumb 11.9206 -3.14182
lclavicle 1.2424e-014 -2.14687e-014
lhumerus -80.0275 45.3921 18.3605
lradius 24.5349
lwrist 10.4037
lhand -6.75588 41.734
lfingers 7.12502
lthumb 19.1056 70.8156
rfemur -33.1376 -2.44448 5.15734
rtibia 28.7074
rfoot -17.3266 -22.6458
rtoes 21.7519
lfemur -7.73763 -9.75627 -25.9422
ltibia 31.2668
lfoot -18.1341 -31.9622
ltoes 29.2744
502
root 7.19076 17.3775 2.64046 11.2889 47.4219 9.36214
lowerback 8.34055 3.07155 -5.75471
upperback 3.45092 3.6664 -1.20685
thorax -1.36075 1.82289 1.62248
lowerneck 12.6027 -18.1537 -22.2549
upperneck -13.444 -25.6059 33.6334
head 1.92462 -14.1464 13.2141
rclavicle 9.24349e-015 1.07344e-014
rhumerus -35.0785 -16.9942 -72.1612
rradius 49.0174
rwrist -6.00416
rhand -15.1491 26.6628
rfingers 7.12502
rthumb 11.0209 -3.02791
lclavicle 9.24349e-015 1.07344e-014
lhumerus -81.197 46.2322 17.8997
lradius 23.7247
lwrist 9.40105
lhand -7.25776 41.0116
lfingers 7.12502
lthumb 18.6229 70.1402
rfemur -32.5239 -2.72169 5.07338
rtibia 28.6068
rfoot -17.3379 -22.0789
rtoes 21.5385
lfemur -7.11425 -11.0826 -25.883
ltibia 31.2599
lfoot -16.0453 -32.5146
ltoes 36.3631
503
root 7.18742 17.3885 2.64163 11.1348 47.3454 8.87158
lowerback 8.28734 3.27649 -5.66323
upperback 3.40138 3.94686 -1.03836
thorax -1.40917 1.96293 1.71711
lowerneck 12.6769 -18.3067 -22.2228
upperneck -13.771 -25.7664 33.5823
head 1.8514 -14.2372 13.1766
rclavicle 5.26779e-014 -3.57812e-015
rhumerus -35.2565 -17.8206 -72.119
rradius 46.7439
rwrist -7.15783
rhand -14.5224 26.4049
rfingers 7.12502
rthumb 11.6254 -3.25265
lclavicle 5.26779e-014 -3.57812e-015
lhumerus -82.1013 46.8513 17.7589
lradius 23.0022
lwrist 8.58931
lhand -7.49938 40.9635
lfingers 7.12502
lthumb 18.3905 70.1142
rfemur -32.7251 -1.47026 5.10213
rtibia 28.4571
rfoot -17.769 -22.609
rtoes 22.1524
lfemur -7.33017 -11.6956 -25.4355
ltibia 31.3346
lfoot -15.6102 -32.1343
ltoes 38.4984
504
root 7.20657 17.3922 2.6494 10.6207 47.8163 8.22313
lowerback 8.40596 3.29986 -5.01019
upperback 3.3987 4.02151 -0.928957
thorax -1.44948 2.00397 1.45345
lowerneck 12.9909 -18.3415 -22.2782
upperneck -14.0469 -25.8196 33.8374
head 1.79539 -14.3099 13.3086
rclavicle -2.88238e-014 9.14409e-015
rhumerus -35.8376 -19.1191 -72.1321
rradius 44.7299
rwrist -7.29893
rhand -14.843 26.0305
rfingers 7.12502
rthumb 11.3161 -3.64417
lclavicle -2.88238e-014 9.14409e-015
lhumerus -83.6004 47.6395 16.7088
lradius 22.4092
lwrist 7.08757
lhand -7.35239 40.8261
lfingers 7.12502
lthumb 18.5319 69.9634
rfemur -32.472 -1.95367 5.69643
rtibia 28.3111
rfoot -17.2748 -22.2074
rtoes 21.4947
lfemur -7.27092 -11.9757 -24.9101
ltibia 31.4345
lfoot -15.3268 -32.4694
ltoes 39.398
505
root 7.22731 17.3963 2.65651 10.4848 48.1628 7.80771
lowerback 8.32663 3.30802 -4.52128
upperback 3.31612 4.07101 -0.914358
thorax -1.46423 2.0319 1.19426
lowerneck 13.1684 -18.2945 -22.2457
upperneck -14.2076 -25.7392 33.9923
head 1.72532 -14.2994 13.4085
rclavicle 1.03567e-013 -1.19271e-015
rhumerus -36.3109 -20.2932 -72.0624
rradius 42.4976
rwrist -7.22832
rhand -15.2844 26.1446
rfingers 7.12502
rthumb 10.8904 -3.55304
lclavicle 1.03567e-013 -1.19271e-015
lhumerus -86.0627 48.6953 14.5233
lradius 21.8413
lwrist 4.29392
lhand -7.27318 40.3294
lfingers 7.12502
lthumb 18.6081 69.4594
rfemur -32.5225 -2.62694 6.14101
rtibia 28.2222
rfoot -16.6486 -21.5513
rtoes 21.0866
lfemur -7.44102 -12.1807 -24.5335
ltibia 31.5612
lfoot -14.9135 -32.968
ltoes 41.0211
506
root 7.24428 17.3992 2.65707 10.617 48.4113 7.71063
lowerback 8.20341 3.28494 -4.49135
upperback 3.28722 4.05094 -0.691013
thorax -1.43951 2.0201 1.41564
lowerneck 13.144 -18.2166 -22.567
upperneck -14.4465 -25.6468 33.9954
head 1.68601 -14.2454 13.4775
rclavicle -1.61612e-013 -4.77083e-015
rhumerus -36.2419 -20.5279 -71.8414
rradius 39.8649
rwrist -7.47659
rhand -15.6709 26.2445
rfingers 7.12502
rthumb 10.5176 -3.47236
lclavicle -1.61612e-013 -4.77083e-015
lhumerus -88.3262 49.5476 13.1532
lradius 21.3099
lwrist 2.01102
lhand -7.65044 39.8771
lfingers 7.12502
lthumb 18.2452 69.0414
rfemur -32.7183 -2.92933 6.22225
rtibia 28.2946
rfoot -16.1762 -21.1774
rtoes 21.0196
lfemur -7.63076 -12.3677 -24.4162
ltibia 31.5625
lfoot -14.8524 -33.0346
ltoes 41.5833
507
root 7.25623 17.3987 2.6638 10.7404 48.6585 7.838
lowerback 8.18573 3.32407 -4.86325
upperback 3.37758 4.08519 -0.291116
thorax -1.39118 2.03098 2.03408
lowerneck 13.1558 -18.2315 -23.0532
upperneck -14.8135 -25.704 33.942
head 1.65928 -14.2604 13.5193
rclavicle -7.09661e-014 4.29375e-014
rhumerus -36.5279 -21.8361 -70.9028
rradius 37.8913
rwrist -6.58016
rhand -15.8007 26.1262
rfingers 7.12502
rthumb 10.3925 -3.597
lclavicle -7.09661e-014 4.29375e-014
lhumerus -90.1106 50.1851 12.4471
lradius 20.8199
lwrist 0.26437
lhand -7.97495 39.3009
lfingers 7.12502
lthumb 17.9329 68.4941
rfemur -32.7524 -3.01074 6.11736
rtibia 28.5224
rfoot -15.9041 -21.0137
rtoes 21.5075
lfemur -7.57311 -12.4643 -24.4644
ltibia 31.4367
lfoot -14.8572 -33.0439
ltoes 41.1742
508
root 7.26435 17.3932 2.6817 10.9012 48.87 8.08998
lowerback 8.21931 3.3947 -5.27919
upperback 3.45448 4.15231 -0.0681125
thorax -1.37816 2.05975 2.48848
lowerneck 13.2135 -18.2819 -23.2491
upperneck -15.1685 -25.7606 33.915
head 1.59102 -14.2904 13.5426
rclavicle 3.85642e-014 2.22639e-014
rhumerus -36.6709 -22.8844 -70.2282
rradius 35.6134
rwrist -6.05309
rhand -16.0641 25.9622
rfingers 7.12502
rthumb 10.1383 -3.77359
lclavicle 3.85642e-014 2.22639e-014
lhumerus -91.0887 50.5585 12.1028
lradius 20.4044
lwrist -1.28084
lhand -7.52676 38.8824
lfingers 7.12502
lthumb 18.3641 68.0355
rfemur -32.7046 -2.98523 5.9242
rtibia 28.7123
rfoot -15.8029 -21.0077
rtoes 21.5886
lfemur -7.47364 -12.0555 -24.6114
ltibia 31.3069
lfoot -15.3608 -33.2367
ltoes 38.5518
